<svg width="148" height="148" viewBox="0 0 148 148" fill="none" xmlns="http://www.w3.org/2000/svg">
<g clip-path="url(#clip0_35_4932)">
<path d="M69.3926 1.13668C69.7421 1.23421 69.7421 1.23421 70.0986 1.3337C80.2317 4.25115 88.5414 10.6626 93.8366 19.8207C97.2342 25.9832 98.5346 32.622 98.5087 39.5948C98.5081 40.0237 98.5077 40.4526 98.5075 40.8816C98.5064 42.0022 98.5035 43.1229 98.5003 44.2436C98.4974 45.3904 98.4961 46.5373 98.4946 47.6841C98.4916 49.9283 98.4866 52.1725 98.4806 54.4167C98.9167 54.4085 98.9167 54.4085 99.3617 54.4002C99.7501 54.3958 100.139 54.3916 100.527 54.3874C100.907 54.382 101.287 54.3766 101.678 54.371C105.384 54.5219 108.643 56.5609 111.141 59.1912C113.45 61.9338 114.648 65.1053 114.641 68.6826C114.641 69.0573 114.641 69.432 114.641 69.818C114.64 70.2241 114.638 70.6302 114.637 71.0363C114.636 71.454 114.636 71.8716 114.635 72.2893C114.634 73.3853 114.632 74.4814 114.628 75.5774C114.625 76.6972 114.624 77.8169 114.623 78.9366C114.62 81.1313 114.615 83.326 114.609 85.5207C114.885 85.5589 115.162 85.5971 115.447 85.6365C115.81 85.6873 116.173 85.7382 116.547 85.7905C117.087 85.8657 117.087 85.8657 117.637 85.9423C125.121 87.0939 131.839 91.7967 136.497 97.6167C141.776 104.873 143.736 113.463 142.371 122.315C141.723 125.968 140.316 129.243 138.513 132.465C138.353 132.752 138.193 133.039 138.028 133.335C133.88 140.278 126.765 145.084 119.037 147.135C110.925 149.071 102.414 147.715 95.2203 143.606C92.5387 141.921 90.2787 139.944 88.1126 137.649C86.7585 138.058 85.5444 138.632 84.2966 139.287C80.0838 141.432 75.7362 142.967 71.1206 143.985C70.9127 144.032 70.7048 144.08 70.4906 144.129C61.1384 146.177 50.6992 145.094 41.7446 141.969C41.4636 141.872 41.4636 141.872 41.1769 141.773C29.1076 137.533 18.665 128.571 12.3686 117.489C12.1803 117.166 11.9921 116.843 11.7982 116.51C8.72852 111.109 6.88296 105.101 5.81657 99.0027C5.78323 98.8151 5.74988 98.6276 5.71553 98.4343C5.07905 94.4552 5.12193 90.3806 5.12019 86.3622C5.11927 85.8476 5.1183 85.333 5.11729 84.8184C5.11558 83.7486 5.11503 82.6788 5.1152 81.6091C5.11523 80.2471 5.11128 78.8852 5.10634 77.5232C5.10312 76.4637 5.10255 75.4042 5.1027 74.3447C5.10237 73.8427 5.10111 73.3408 5.09887 72.8388C5.07678 67.4035 5.53945 62.5644 9.48857 58.4487C12.2907 55.7599 15.49 54.3624 19.3706 54.3987C19.7318 54.4013 20.093 54.4039 20.4652 54.4066C20.8767 54.4116 20.8767 54.4116 21.2966 54.4167C21.2953 54.2124 21.294 54.008 21.2927 53.7975C21.281 51.8454 21.2723 49.8933 21.2667 47.9411C21.2638 46.9382 21.2597 45.9352 21.2531 44.9323C21.1798 33.5127 21.1798 33.5127 22.5026 28.8927C22.5643 28.6698 22.626 28.447 22.6896 28.2174C25.3127 19.1088 31.1229 11.1223 39.1526 6.03268C39.4715 5.82924 39.7904 5.62579 40.1189 5.41618C48.4946 0.365747 59.8869 -1.55267 69.3926 1.13668ZM41.4172 22.1314C33.2835 31.3052 35.1206 42.5751 35.1206 54.4167C51.4674 54.4167 67.8143 54.4167 84.6566 54.4167C85.4513 35.3624 85.4513 35.3624 76.8806 20.4327C72.81 16.5593 66.9474 14.0507 61.3286 13.8087C61.0045 13.7914 61.0045 13.7914 60.6738 13.7738C53.188 13.5679 46.5382 16.8154 41.4172 22.1314Z" fill="#2D68FF"/>
<path d="M119.793 86.3844C120.079 86.4679 120.079 86.4679 120.371 86.5532C125.263 88.0202 129.304 90.4132 133.041 93.8724C133.395 94.1921 133.395 94.1921 133.757 94.5182C139.562 99.9917 142.436 108.04 142.87 115.853C143.022 121.829 141.408 127.291 138.513 132.464C138.353 132.752 138.193 133.039 138.028 133.335C133.88 140.278 126.765 145.084 119.037 147.134C110.927 149.07 102.411 147.717 95.2192 143.604C87.0868 138.499 82.5808 130.882 80.4691 121.709C79.1087 113.86 81.0065 105.617 85.4753 99.0875C86.0446 98.2904 86.6404 97.5205 87.2486 96.7524C87.4197 96.5319 87.5909 96.3114 87.7672 96.0842C91.817 91.1548 97.6545 88.1286 103.665 86.3844C104.005 86.2853 104.345 86.1862 104.695 86.084C109.467 84.9237 115.083 84.9935 119.793 86.3844Z" fill="#5383FD"/>
<path d="M69.3928 1.13668C69.7423 1.23421 69.7423 1.23421 70.0989 1.3337C80.2319 4.25115 88.5416 10.6626 93.8368 19.8207C97.2344 25.9832 98.5348 32.622 98.5089 39.5948C98.5084 40.0237 98.508 40.4526 98.5077 40.8816C98.5066 42.0022 98.5038 43.1229 98.5006 44.2436C98.4971 45.5926 98.4958 46.9416 98.4941 48.2906C98.4913 50.3327 98.4858 52.3747 98.4808 54.4167C93.9189 54.4167 89.3569 54.4167 84.6568 54.4167C84.6456 52.4749 84.6456 52.4749 84.6343 50.4938C84.627 49.663 84.6194 48.8322 84.6107 48.0014C84.5968 46.6889 84.5841 45.3766 84.5787 44.0641C84.5393 35.1081 82.5872 28.2246 76.0005 21.501C71.8361 17.6693 67.0188 14.3418 61.3288 14.0967C61.1127 14.0852 60.8966 14.0737 60.674 14.0618C53.472 13.8637 47.2636 16.8362 42.1228 21.6927C36.941 27.1045 35.4135 33.9079 35.3177 41.1698C35.3117 41.5497 35.3057 41.9296 35.2995 42.321C35.2838 43.3223 35.2695 44.3237 35.2555 45.325C35.2409 46.3503 35.225 47.3755 35.2091 48.4007C35.1782 50.406 35.1495 52.4114 35.1208 54.4167C30.5589 54.4167 25.9969 54.4167 21.2968 54.4167C21.2846 52.2601 21.2731 50.1036 21.267 47.947C21.264 46.9421 21.26 45.9372 21.2533 44.9323C21.18 33.5127 21.18 33.5127 22.5028 28.8927C22.5645 28.6698 22.6262 28.447 22.6898 28.2174C25.3129 19.1088 31.1231 11.1223 39.1528 6.03268C39.4717 5.82924 39.7906 5.62579 40.1192 5.41618C48.4948 0.365747 59.8871 -1.55267 69.3928 1.13668Z" fill="#D5D1E9"/>
<path d="M67.0921 77.8564C67.281 78.0097 67.47 78.1631 67.6647 78.321C67.9348 78.5376 67.9348 78.5376 68.2103 78.7586C70.1034 80.4537 71.6135 83.1578 71.7552 85.7111C71.8264 89.6646 71.2946 92.5933 68.5647 95.6246C67.2674 96.9517 67.2674 96.9517 66.5127 97.329C66.562 97.6497 66.6113 97.9703 66.6622 98.3007C66.9667 100.28 67.2713 102.26 67.5758 104.239C67.6141 104.488 67.6523 104.737 67.6918 104.993C67.7681 105.489 67.8442 105.985 67.9201 106.481C68.0847 107.555 68.2506 108.629 68.4255 109.701C68.4781 110.028 68.5307 110.354 68.5849 110.691C68.6529 111.103 68.6529 111.103 68.7223 111.523C68.8245 112.37 68.8521 113.181 68.8167 114.033C68.3147 114.535 67.6232 114.358 66.9408 114.358C66.6015 114.359 66.2623 114.36 65.9127 114.361C65.5435 114.36 65.1742 114.36 64.7937 114.359C64.4176 114.36 64.0416 114.36 63.6541 114.36C62.8571 114.361 62.06 114.36 61.263 114.359C60.2393 114.357 59.2156 114.358 58.1919 114.36C57.2185 114.361 56.2451 114.36 55.2717 114.359C54.9024 114.36 54.5331 114.36 54.1526 114.361C53.6438 114.36 53.6438 114.36 53.1246 114.358C52.8243 114.358 52.5239 114.358 52.2145 114.358C51.5367 114.321 51.5367 114.321 51.2487 114.033C51.2865 111.22 51.7485 108.461 52.2387 105.699C52.7425 102.818 53.1864 99.9419 53.5527 97.041C53.2898 96.9191 53.2898 96.9191 53.0217 96.7946C50.4226 95.4151 49.2774 92.638 48.2967 90.039C47.5945 86.5866 48.2316 83.485 50.1507 80.535C54.2543 75.0723 61.5039 73.7393 67.0921 77.8564Z" fill="#E4ECFF"/>
<path d="M111.657 85.4303C111.987 85.4319 112.317 85.4335 112.657 85.4352C115.142 85.4707 117.399 85.6771 119.793 86.3843C119.984 86.44 120.175 86.4956 120.371 86.553C125.264 88.02 129.305 90.4131 133.041 93.8723C133.396 94.1919 133.396 94.1919 133.758 94.518C139.562 99.9916 142.436 108.04 142.871 115.853C143.022 121.829 141.409 127.291 138.513 132.464C138.273 132.895 138.273 132.895 138.029 133.335C133.86 140.313 126.721 145.112 118.947 147.134C115.52 147.964 112.064 147.87 108.561 147.728C109.306 146.984 109.88 146.933 110.901 146.684C118.623 144.542 124.947 139.124 128.937 132.266C133.037 124.948 133.738 116.329 131.603 108.289C129.16 100.318 123.723 93.6849 116.374 89.7567C112.681 87.8707 108.938 86.8156 104.817 86.3843C104.817 86.2892 104.817 86.1942 104.817 86.0963C107.113 85.5963 109.311 85.4181 111.657 85.4303Z" fill="#0D3CB5"/>
<path d="M86.3848 54.4167C88.4654 54.3898 90.546 54.3694 92.6268 54.357C93.5934 54.351 94.5598 54.3423 95.5264 54.3297C96.6417 54.3157 97.7569 54.3092 98.8723 54.3042C99.2135 54.2982 99.5548 54.2923 99.9063 54.2861C104.004 54.285 107.526 55.7011 110.505 58.5207C113.201 61.3597 114.649 64.7684 114.641 68.6826C114.641 69.2446 114.641 69.2446 114.641 69.818C114.64 70.2241 114.638 70.6302 114.637 71.0363C114.636 71.4539 114.636 71.8716 114.636 72.2892C114.635 73.3853 114.632 74.4813 114.629 75.5774C114.626 76.6971 114.624 77.8169 114.623 78.9366C114.62 81.1313 114.615 83.326 114.609 85.5207C114.424 85.5265 114.239 85.5324 114.048 85.5385C113.194 85.5671 112.339 85.599 111.485 85.6309C111.194 85.6401 110.903 85.6493 110.604 85.6588C107.421 85.7827 104.242 86.2753 101.261 87.4309C100.209 87.8247 100.209 87.8247 99.3448 87.8247C99.3413 87.4564 99.3413 87.4564 99.3377 87.0806C99.3152 84.7548 99.29 82.429 99.262 80.1032C99.2476 78.9078 99.2343 77.7124 99.2233 76.5169C99.2126 75.361 99.1992 74.2051 99.184 73.0492C99.1787 72.6105 99.1744 72.1718 99.171 71.7332C99.1322 66.86 98.5482 62.3412 95.0259 58.6613C92.5902 56.5485 89.6204 54.986 86.3848 54.7047C86.3848 54.6096 86.3848 54.5146 86.3848 54.4167Z" fill="#0D3CB5"/>
<path d="M119.036 97.7964C121.401 99.8376 123.067 102.643 123.328 105.773C123.427 109.409 122.573 112.55 120.049 115.261C118.107 117.069 116.275 117.926 113.744 118.64C113.756 119.022 113.756 119.022 113.767 119.411C113.792 120.358 113.81 121.305 113.824 122.253C113.831 122.662 113.841 123.071 113.853 123.48C113.871 124.07 113.879 124.66 113.885 125.25C113.893 125.604 113.9 125.959 113.908 126.324C113.698 127.55 113.273 127.965 112.304 128.72C111.278 128.9 111.278 128.9 110.288 128.72C109.393 127.91 109.066 127.262 108.983 126.082C108.973 125.612 108.971 125.141 108.973 124.67C108.972 124.42 108.97 124.17 108.968 123.912C108.966 123.384 108.967 122.857 108.97 122.329C108.974 121.523 108.965 120.718 108.954 119.912C108.953 119.398 108.954 118.884 108.955 118.37C108.952 118.13 108.948 117.89 108.944 117.643C108.964 116.387 109.022 115.905 109.83 114.887C110.59 114.31 110.857 114.163 111.782 114.176C113.569 114.066 115.176 113.367 116.52 112.174C118.224 110.229 118.548 108.417 118.486 105.902C118.284 104.26 117.763 103.136 116.624 101.936C114.433 100.278 112.455 99.6082 109.712 99.9204C107.26 100.702 105.779 102.12 104.582 104.348C104.297 105.22 104.182 105.847 104.114 106.742C104.035 107.619 103.969 107.958 103.484 108.722C102.519 109.307 101.893 109.295 100.784 109.136C100.003 108.537 99.6739 108.192 99.4795 107.217C99.5155 103.805 100.696 101.002 103.034 98.4973C107.584 94.2503 114.087 94.1737 119.036 97.7964Z" fill="#EEE9FA"/>
<path d="M58.4487 75.4402C61.8718 75.162 65.0019 76.1595 67.6647 78.3202C67.8448 78.4646 68.0248 78.609 68.2104 78.7578C70.1034 80.4529 71.6135 83.1569 71.7552 85.7103C71.8265 89.6637 71.2947 92.5924 68.5647 95.6238C67.2674 96.9508 67.2674 96.9508 66.5127 97.3282C66.5621 97.6488 66.6114 97.9695 66.6622 98.2998C66.9668 100.279 67.2713 102.259 67.5759 104.238C67.6141 104.487 67.6524 104.736 67.6918 104.992C67.7681 105.488 67.8442 105.984 67.9202 106.48C68.0847 107.554 68.2506 108.628 68.4255 109.7C68.4781 110.027 68.5308 110.353 68.585 110.69C68.653 111.102 68.653 111.102 68.7224 111.522C68.8246 112.369 68.8522 113.18 68.8167 114.032C68.5287 114.32 68.5287 114.32 67.9408 114.353C67.689 114.351 67.4371 114.35 67.1776 114.348C66.9057 114.347 66.6337 114.346 66.3535 114.345C66.0675 114.343 65.7814 114.341 65.4867 114.338C65.1996 114.337 64.9124 114.336 64.6165 114.334C63.9046 114.331 63.1927 114.326 62.4807 114.32C62.4351 113.994 62.3894 113.668 62.3424 113.331C62.2746 112.851 62.2067 112.371 62.1387 111.89C62.1019 111.629 62.065 111.369 62.027 111.1C61.7753 109.336 61.5112 107.575 61.2387 105.815C61.1728 105.387 61.1069 104.96 61.0409 104.532C60.9424 103.893 60.8434 103.255 60.743 102.616C60.648 102.012 60.5545 101.408 60.4614 100.803C60.3791 100.277 60.3791 100.277 60.2952 99.7408C60.1835 98.8239 60.1267 97.9624 60.1767 97.0402C60.557 96.5845 60.557 96.5845 61.0767 96.2302C63.2357 94.5553 64.5915 91.9329 65.2887 89.3182C65.3125 89.0152 65.3363 88.7123 65.3607 88.4002C65.3823 88.1585 65.4038 87.9168 65.426 87.6678C65.596 84.2818 64.4987 81.2322 62.2895 78.6633C61.3092 77.7437 60.2277 77.0718 59.0607 76.4122C58.8588 76.2815 58.6568 76.1508 58.4487 76.0162C58.4487 75.8261 58.4487 75.636 58.4487 75.4402Z" fill="#A1B9F9"/>
<path d="M112.305 133.616C113.007 134.048 113.007 134.048 113.457 134.768C113.624 135.622 113.571 136.18 113.457 137.072C112.804 137.909 112.348 137.93 111.297 138.08C110.289 137.936 110.289 137.936 109.569 137.342C109.006 136.239 109.097 135.661 109.425 134.48C110.096 133.325 111.077 133.465 112.305 133.616Z" fill="#ECE9FA"/>
</g>
<defs>
<clipPath id="clip0_35_4932">
<rect width="147.456" height="147.456" fill="white" transform="translate(0.273438 0.272461)"/>
</clipPath>
</defs>
</svg>
