<svg width="151" height="46" viewBox="0 0 151 46" fill="none" xmlns="http://www.w3.org/2000/svg">
<path d="M56.131 35.0928V11.1528H61.4662L71.6578 28.458H71.7604V11.1528H76.3774V35.0928H71.0422L60.8506 17.8218H60.748V35.0928H56.131ZM86.2694 35.5032C84.8786 35.5032 83.6816 35.2068 82.6784 34.614C81.698 34.0212 80.9456 33.1434 80.4212 31.9806C79.9196 30.795 79.6688 29.3472 79.6688 27.6372V18.1296H84.2516V27.2268C84.2516 28.6404 84.5366 29.7234 85.1066 30.4758C85.6766 31.2282 86.5886 31.6044 87.8426 31.6044C88.6178 31.6044 89.3132 31.422 89.9288 31.0572C90.5444 30.6696 91.0232 30.1338 91.3652 29.4498C91.7072 28.743 91.8782 27.888 91.8782 26.8848V18.1296H96.4952V35.0928H92.4938L92.1176 32.3226H92.0492C91.502 33.303 90.7496 34.0782 89.792 34.6482C88.8572 35.2182 87.683 35.5032 86.2694 35.5032ZM110.346 35.5032C109.457 35.5032 108.636 35.3778 107.883 35.127C107.131 34.8762 106.458 34.5228 105.866 34.0668C105.273 33.588 104.771 33.0294 104.361 32.391H104.258L103.916 35.0928H99.9489V10.9134H104.566V20.3868C105.113 19.6572 105.854 19.0302 106.789 18.5058C107.747 17.9814 108.898 17.7192 110.243 17.7192C111.885 17.7192 113.321 18.1068 114.552 18.882C115.784 19.6572 116.741 20.7174 117.425 22.0626C118.109 23.385 118.451 24.9126 118.451 26.6454C118.451 28.3326 118.109 29.8488 117.425 31.194C116.741 32.5392 115.784 33.5994 114.552 34.3746C113.344 35.127 111.942 35.5032 110.346 35.5032ZM109.115 31.6386C110.049 31.6386 110.859 31.422 111.543 30.9888C112.25 30.5556 112.797 29.9628 113.184 29.2104C113.572 28.458 113.766 27.5916 113.766 26.6112C113.766 25.6308 113.572 24.7644 113.184 24.012C112.797 23.2368 112.25 22.644 111.543 22.2336C110.859 21.8004 110.049 21.5838 109.115 21.5838C108.203 21.5838 107.393 21.8004 106.686 22.2336C105.98 22.644 105.432 23.2254 105.045 23.9778C104.657 24.7302 104.463 25.608 104.463 26.6112C104.463 27.5916 104.657 28.458 105.045 29.2104C105.432 29.9628 105.98 30.5556 106.686 30.9888C107.393 31.422 108.203 31.6386 109.115 31.6386ZM121.531 35.0928V18.1296H126.148V35.0928H121.531ZM123.856 15.8724C123.036 15.8724 122.352 15.6216 121.804 15.12C121.28 14.6184 121.018 14.0028 121.018 13.2732C121.018 12.5208 121.28 11.8938 121.804 11.3922C122.329 10.8906 123.013 10.6398 123.856 10.6398C124.7 10.6398 125.384 10.8906 125.908 11.3922C126.456 11.8938 126.729 12.5208 126.729 13.2732C126.729 14.0028 126.456 14.6184 125.908 15.12C125.384 15.6216 124.7 15.8724 123.856 15.8724ZM143.243 42.1722V32.8356C142.696 33.5652 141.943 34.1922 140.986 34.7166C140.051 35.241 138.911 35.5032 137.566 35.5032C135.947 35.5032 134.522 35.1156 133.291 34.3404C132.06 33.5652 131.102 32.5164 130.418 31.194C129.734 29.8488 129.392 28.3212 129.392 26.6112C129.392 24.8784 129.734 23.3508 130.418 22.0284C131.102 20.6832 132.048 19.6344 133.257 18.882C134.465 18.1068 135.867 17.7192 137.463 17.7192C138.375 17.7192 139.207 17.8446 139.96 18.0954C140.712 18.3462 141.385 18.6996 141.978 19.1556C142.57 19.6116 143.072 20.1702 143.482 20.8314H143.551L143.927 18.1296H147.86V42.1722H143.243ZM138.694 31.6386C139.629 31.6386 140.439 31.4334 141.123 31.023C141.829 30.5898 142.377 29.997 142.764 29.2446C143.152 28.4922 143.346 27.6144 143.346 26.6112C143.346 25.6308 143.152 24.7644 142.764 24.012C142.377 23.2596 141.829 22.6668 141.123 22.2336C140.439 21.8004 139.629 21.5838 138.694 21.5838C137.782 21.5838 136.973 21.8004 136.266 22.2336C135.582 22.6668 135.046 23.2596 134.659 24.012C134.271 24.7644 134.077 25.6308 134.077 26.6112C134.077 27.5916 134.271 28.458 134.659 29.2104C135.046 29.9628 135.582 30.5556 136.266 30.9888C136.973 31.422 137.782 31.6386 138.694 31.6386Z" fill="#170F49"/>
<path d="M0.181641 19.4519C0.181641 9.17328 8.5141 0.84082 18.7927 0.84082V26.5497C18.7927 36.8283 10.4602 45.1608 0.181641 45.1608V19.4519Z" fill="#2D68FF"/>
<path d="M21.4922 10.9539C21.4922 5.36861 26.02 0.84082 31.6053 0.84082C37.1906 0.84082 41.7184 5.36861 41.7184 10.9539V11.5378C41.7184 17.1231 37.1906 21.6509 31.6053 21.6509C26.02 21.6509 21.4922 17.1231 21.4922 11.5378V10.9539Z" fill="#5AC4FF"/>
<path d="M21.4922 34.4637C21.4922 28.8784 26.02 24.3506 31.6053 24.3506C37.1906 24.3506 41.7184 28.8784 41.7184 34.4637V35.0476C41.7184 40.6329 37.1906 45.1607 31.6053 45.1607C26.02 45.1607 21.4922 40.6329 21.4922 35.0476V34.4637Z" fill="#021935"/>
</svg>
