<svg width="42" height="42" viewBox="0 0 42 42" fill="none" xmlns="http://www.w3.org/2000/svg">
<rect width="42" height="42" rx="4" fill="#F1F5FB"/>
<path d="M20.4996 21.0968C19.3033 21.0968 18.1339 20.742 17.1393 20.0774C16.1446 19.4128 15.3694 18.4682 14.9116 17.363C14.4538 16.2578 14.334 15.0417 14.5674 13.8684C14.8008 12.6951 15.3768 11.6174 16.2227 10.7715C17.0686 9.92565 18.1463 9.3496 19.3196 9.11622C20.4929 8.88284 21.709 9.00262 22.8142 9.46041C23.9194 9.9182 24.864 10.6934 25.5286 11.6881C26.1932 12.6827 26.5479 13.8521 26.5479 15.0484C26.5479 16.6525 25.9107 18.191 24.7764 19.3252C23.6421 20.4595 22.1037 21.0968 20.4996 21.0968ZM20.4996 11.4194C19.7818 11.4194 19.0802 11.6322 18.4834 12.031C17.8866 12.4297 17.4214 12.9965 17.1468 13.6596C16.8721 14.3227 16.8002 15.0524 16.9403 15.7564C17.0803 16.4603 17.4259 17.107 17.9334 17.6145C18.441 18.122 19.0876 18.4677 19.7916 18.6077C20.4955 18.7477 21.2252 18.6758 21.8883 18.4012C22.5515 18.1265 23.1182 17.6614 23.517 17.0646C23.9158 16.4678 24.1286 15.7661 24.1286 15.0484C24.1286 14.0859 23.7463 13.1629 23.0657 12.4823C22.3851 11.8017 21.462 11.4194 20.4996 11.4194Z" fill="#1E293B"/>
<path d="M31.7903 32.3876C31.4708 32.3834 31.1655 32.2546 30.9396 32.0286C30.7136 31.8027 30.5848 31.4974 30.5806 31.1779C30.5806 28.0327 28.871 25.936 20.5 25.936C12.129 25.936 10.4194 28.0327 10.4194 31.1779C10.4194 31.4987 10.2919 31.8064 10.065 32.0333C9.83819 32.2601 9.5305 32.3876 9.20968 32.3876C8.88885 32.3876 8.58116 32.2601 8.35431 32.0333C8.12745 31.8064 8 31.4987 8 31.1779C8 23.5166 16.7581 23.5166 20.5 23.5166C24.2419 23.5166 33 23.5166 33 31.1779C32.9958 31.4974 32.867 31.8027 32.6411 32.0286C32.4151 32.2546 32.1098 32.3834 31.7903 32.3876Z" fill="#1E293B"/>
</svg>
