<svg width="24" height="22" viewBox="0 0 24 22" fill="none" xmlns="http://www.w3.org/2000/svg">
<path d="M10.9997 20C10.9997 21.1067 10.1063 22 8.99967 22C7.89301 22 6.99967 21.1067 6.99967 20C6.99967 18.8933 7.89301 18 8.99967 18C10.1063 18 10.9997 18.8933 10.9997 20ZM17.6663 18C16.5597 18 15.6663 18.8933 15.6663 20C15.6663 21.1067 16.5597 22 17.6663 22C18.773 22 19.6663 21.1067 19.6663 20C19.6663 18.8933 18.773 18 17.6663 18ZM23.6397 5.24L20.973 15.9067C20.8663 16.3467 20.4663 16.6667 19.9997 16.6667H6.66634C6.18634 16.6667 5.77301 16.32 5.67968 15.84L3.15967 2H1.33301C0.786341 2 0.333008 1.54667 0.333008 1C0.333008 0.453333 0.786341 0 1.33301 0H3.99967C4.47967 0 4.89301 0.346667 4.98634 0.826667L5.55967 4H22.6663C22.973 4 23.2663 4.14667 23.453 4.38667C23.6397 4.62667 23.7063 4.94667 23.6397 5.24ZM21.3863 6H5.91967L7.49301 14.6667H19.213L21.3863 6Z" fill="black"/>
</svg>
