<svg width="20" height="21" viewBox="0 0 20 21" fill="none" xmlns="http://www.w3.org/2000/svg">
<path d="M16.5837 19.4583H3.41699C1.81699 19.4583 1.04199 18.6417 1.04199 16.975V13.6083C1.04199 11.9333 1.81699 11.125 3.41699 11.125H16.5837C18.1837 11.125 18.9587 11.9417 18.9587 13.6083V16.975C18.9587 18.6417 18.1837 19.4583 16.5837 19.4583ZM3.41699 12.375C2.57533 12.375 2.29199 12.55 2.29199 13.6083V16.975C2.29199 18.0333 2.57533 18.2083 3.41699 18.2083H16.5837C17.4253 18.2083 17.7087 18.0333 17.7087 16.975V13.6083C17.7087 12.55 17.4253 12.375 16.5837 12.375H3.41699Z" fill="#425466"/>
<path d="M16.5837 9.87435H3.41699C1.81699 9.87435 1.04199 9.05768 1.04199 7.39102V4.02435C1.04199 2.34935 1.81699 1.54102 3.41699 1.54102H16.5837C18.1837 1.54102 18.9587 2.35768 18.9587 4.02435V7.39102C18.9587 9.05768 18.1837 9.87435 16.5837 9.87435ZM3.41699 2.79102C2.57533 2.79102 2.29199 2.96602 2.29199 4.02435V7.39102C2.29199 8.44935 2.57533 8.62435 3.41699 8.62435H16.5837C17.4253 8.62435 17.7087 8.44935 17.7087 7.39102V4.02435C17.7087 2.96602 17.4253 2.79102 16.5837 2.79102H3.41699Z" fill="#425466"/>
</svg>
