<svg width="225" height="240" viewBox="0 0 225 240" fill="none" xmlns="http://www.w3.org/2000/svg">
<path d="M0.310608 101.13C0.310608 45.6252 45.3059 0.629883 100.81 0.629883V139.458C100.81 194.962 55.8151 239.958 0.310608 239.958V101.13Z" fill="#2D68FF"/>
<path d="M115.39 55.2406C115.39 25.0799 139.84 0.629883 170.001 0.629883C200.162 0.629883 224.612 25.0799 224.612 55.2406V58.3937C224.612 88.5543 200.162 113.004 170.001 113.004C139.84 113.004 115.39 88.5543 115.39 58.3936V55.2406Z" fill="#5AC4FF"/>
<path d="M115.39 182.199C115.39 152.038 139.84 127.588 170.001 127.588C200.162 127.588 224.612 152.038 224.612 182.199V185.352C224.612 215.512 200.162 239.962 170.001 239.962C139.84 239.962 115.39 215.512 115.39 185.352V182.199Z" fill="#021935"/>
</svg>
