<svg width="18" height="18" viewBox="0 0 18 18" fill="none" xmlns="http://www.w3.org/2000/svg">
<path d="M7.77024 15.3002C6.28094 15.3002 4.8251 14.8586 3.58679 14.0312C2.34849 13.2038 1.38335 12.0278 0.813425 10.6518C0.243497 9.27592 0.0943779 7.76188 0.384925 6.30121C0.675471 4.84053 1.39263 3.49881 2.44572 2.44572C3.49881 1.39263 4.84053 0.675471 6.30121 0.384925C7.76188 0.0943779 9.27592 0.243497 10.6518 0.813425C12.0278 1.38335 13.2038 2.34849 14.0312 3.58679C14.8586 4.8251 15.3002 6.28094 15.3002 7.77024C15.3002 8.75909 15.1055 9.73826 14.727 10.6518C14.3486 11.5654 13.794 12.3955 13.0948 13.0948C12.3955 13.794 11.5654 14.3486 10.6518 14.727C9.73826 15.1055 8.75909 15.3002 7.77024 15.3002ZM7.77024 1.75024C6.58355 1.75024 5.42351 2.10213 4.43682 2.76142C3.45012 3.42071 2.68109 4.35778 2.22696 5.45414C1.77283 6.55049 1.65401 7.75689 1.88553 8.92078C2.11704 10.0847 2.68848 11.1538 3.5276 11.9929C4.36671 12.832 5.43581 13.4034 6.5997 13.6349C7.76358 13.8665 8.96998 13.7476 10.0663 13.2935C11.1627 12.8394 12.0998 12.0704 12.7591 11.0837C13.4183 10.097 13.7702 8.93693 13.7702 7.75024C13.7702 6.15894 13.1381 4.63282 12.0129 3.5076C10.8877 2.38238 9.36154 1.75024 7.77024 1.75024Z" fill="#64748B"/>
<path d="M17 17.75C16.9014 17.7504 16.8038 17.7312 16.7128 17.6934C16.6218 17.6557 16.5392 17.6001 16.47 17.53L12.34 13.4C12.2075 13.2578 12.1354 13.0697 12.1388 12.8754C12.1422 12.6811 12.2209 12.4958 12.3583 12.3583C12.4958 12.2209 12.6811 12.1422 12.8754 12.1388C13.0697 12.1354 13.2578 12.2075 13.4 12.34L17.53 16.47C17.6704 16.6106 17.7493 16.8012 17.7493 17C17.7493 17.1987 17.6704 17.3893 17.53 17.53C17.4607 17.6001 17.3782 17.6557 17.2872 17.6934C17.1961 17.7312 17.0985 17.7504 17 17.75Z" fill="#64748B"/>
</svg>
